<?xml version="1.0" encoding="UTF-8" standalone="no"?>
<!-- Created with Inkscape (http://www.inkscape.org/) -->

<svg
   xmlns:dc="http://purl.org/dc/elements/1.1/"
   xmlns:cc="http://creativecommons.org/ns#"
   xmlns:rdf="http://www.w3.org/1999/02/22-rdf-syntax-ns#"
   xmlns:svg="http://www.w3.org/2000/svg"
   xmlns="http://www.w3.org/2000/svg"
   xmlns:xlink="http://www.w3.org/1999/xlink"
   xmlns:sodipodi="http://sodipodi.sourceforge.net/DTD/sodipodi-0.dtd"
   xmlns:inkscape="http://www.inkscape.org/namespaces/inkscape"
   width="30.783485mm"
   height="30.665606mm"
   viewBox="0 0 109.07534 108.65765"
   id="svg2"
   version="1.1"
   inkscape:version="0.91 r13725"
   sodipodi:docname="Schaf-lineart.svg">
  <title
     id="title4136">sheep - lineart</title>
  <defs
     id="defs4">
    <pattern
       inkscape:collect="always"
       xlink:href="#pattern6370"
       id="pattern6489"
       patternTransform="matrix(1.1358757,0,0,1.143198,-12,924)" />
    <pattern
       inkscape:collect="always"
       xlink:href="#pattern6370"
       id="pattern6487"
       patternTransform="matrix(1.2596194,0,0,1.2492641,-12,924)" />
    <pattern
       inkscape:collect="always"
       xlink:href="#Polkadots-large"
       id="pattern6466"
       patternTransform="matrix(0.37499999,0,0,0.62499999,0.50000001,945.25)" />
    <pattern
       inkscape:collect="always"
       xlink:href="#Polkadots-large"
       id="pattern6370"
       patternTransform="matrix(0.79999999,0,0,0.82499999,-12,924)" />
    <pattern
       inkscape:collect="always"
       xlink:href="#Polkadots-large"
       id="pattern6274"
       patternTransform="matrix(0.38334777,0,0,0.45405845,-5.6568542,933.38095)" />
    <pattern
       inkscape:collect="always"
       xlink:href="#Polkadots-large"
       id="pattern6182"
       patternTransform="matrix(0.37499999,0,0,0.42499999,-5.6568542,941.86623)" />
    <pattern
       inkscape:collect="always"
       xlink:href="#Polkadots-large"
       id="pattern6090"
       patternTransform="matrix(1.45,0,0,1.9,-8,940)" />
    <pattern
       inkscape:stockid="Polka dots, large"
       id="Polkadots-large"
       patternTransform="translate(0,0) scale(10,10)"
       height="10"
       width="10"
       patternUnits="userSpaceOnUse"
       inkscape:collect="always">
      <circle
         id="circle5780"
         r="0.45"
         cy="0.810"
         cx="2.567"
         style="fill:black;stroke:none" />
      <circle
         id="circle5782"
         r="0.45"
         cy="2.33"
         cx="3.048"
         style="fill:black;stroke:none" />
      <circle
         id="circle5784"
         r="0.45"
         cy="2.415"
         cx="4.418"
         style="fill:black;stroke:none" />
      <circle
         id="circle5786"
         r="0.45"
         cy="3.029"
         cx="1.844"
         style="fill:black;stroke:none" />
      <circle
         id="circle5788"
         r="0.45"
         cy="1.363"
         cx="6.08"
         style="fill:black;stroke:none" />
      <circle
         id="circle5790"
         r="0.45"
         cy="4.413"
         cx="5.819"
         style="fill:black;stroke:none" />
      <circle
         id="circle5792"
         r="0.45"
         cy="4.048"
         cx="4.305"
         style="fill:black;stroke:none" />
      <circle
         id="circle5794"
         r="0.45"
         cy="3.045"
         cx="5.541"
         style="fill:black;stroke:none" />
      <circle
         id="circle5796"
         r="0.45"
         cy="5.527"
         cx="4.785"
         style="fill:black;stroke:none" />
      <circle
         id="circle5798"
         r="0.45"
         cy="5.184"
         cx="2.667"
         style="fill:black;stroke:none" />
      <circle
         id="circle5800"
         r="0.45"
         cy="1.448"
         cx="7.965"
         style="fill:black;stroke:none" />
      <circle
         id="circle5802"
         r="0.45"
         cy="5.049"
         cx="7.047"
         style="fill:black;stroke:none" />
      <circle
         id="circle5804"
         r="0.45"
         cy="0.895"
         cx="4.340"
         style="fill:black;stroke:none" />
      <circle
         id="circle5806"
         r="0.45"
         cy="0.340"
         cx="7.125"
         style="fill:black;stroke:none" />
      <circle
         id="circle5808"
         r="0.45"
         cy="1.049"
         cx="9.553"
         style="fill:black;stroke:none" />
      <circle
         id="circle5810"
         r="0.45"
         cy="2.689"
         cx="7.006"
         style="fill:black;stroke:none" />
      <circle
         id="circle5812"
         r="0.45"
         cy="2.689"
         cx="8.909"
         style="fill:black;stroke:none" />
      <circle
         id="circle5814"
         r="0.45"
         cy="4.407"
         cx="9.315"
         style="fill:black;stroke:none" />
      <circle
         id="circle5816"
         r="0.45"
         cy="3.870"
         cx="7.820"
         style="fill:black;stroke:none" />
      <circle
         id="circle5818"
         r="0.45"
         cy="5.948"
         cx="8.270"
         style="fill:black;stroke:none" />
      <circle
         id="circle5820"
         r="0.45"
         cy="7.428"
         cx="7.973"
         style="fill:black;stroke:none" />
      <circle
         id="circle5822"
         r="0.45"
         cy="8.072"
         cx="9.342"
         style="fill:black;stroke:none" />
      <circle
         id="circle5824"
         r="0.45"
         cy="9.315"
         cx="8.206"
         style="fill:black;stroke:none" />
      <circle
         id="circle5826"
         r="0.45"
         cy="9.475"
         cx="9.682"
         style="fill:black;stroke:none" />
      <circle
         id="circle5828"
         r="0.45"
         cy="6.186"
         cx="9.688"
         style="fill:black;stroke:none" />
      <circle
         id="circle5830"
         r="0.45"
         cy="6.296"
         cx="3.379"
         style="fill:black;stroke:none" />
      <circle
         id="circle5832"
         r="0.45"
         cy="8.204"
         cx="2.871"
         style="fill:black;stroke:none" />
      <circle
         id="circle5834"
         r="0.45"
         cy="8.719"
         cx="4.59"
         style="fill:black;stroke:none" />
      <circle
         id="circle5836"
         r="0.45"
         cy="9.671"
         cx="3.181"
         style="fill:black;stroke:none" />
      <circle
         id="circle5838"
         r="0.45"
         cy="7.315"
         cx="5.734"
         style="fill:black;stroke:none" />
      <circle
         id="circle5840"
         r="0.45"
         cy="6.513"
         cx="6.707"
         style="fill:black;stroke:none" />
      <circle
         id="circle5842"
         r="0.45"
         cy="9.670"
         cx="5.730"
         style="fill:black;stroke:none" />
      <circle
         id="circle5844"
         r="0.45"
         cy="8.373"
         cx="6.535"
         style="fill:black;stroke:none" />
      <circle
         id="circle5846"
         r="0.45"
         cy="7.154"
         cx="4.37"
         style="fill:black;stroke:none" />
      <circle
         id="circle5848"
         r="0.45"
         cy="7.25"
         cx="0.622"
         style="fill:black;stroke:none" />
      <circle
         id="circle5850"
         r="0.45"
         cy="5.679"
         cx="0.831"
         style="fill:black;stroke:none" />
      <circle
         id="circle5852"
         r="0.45"
         cy="8.519"
         cx="1.257"
         style="fill:black;stroke:none" />
      <circle
         id="circle5854"
         r="0.45"
         cy="6.877"
         cx="1.989"
         style="fill:black;stroke:none" />
      <circle
         id="circle5856"
         r="0.45"
         cy="3.181"
         cx="0.374"
         style="fill:black;stroke:none" />
      <circle
         id="circle5858"
         r="0.45"
         cy="1.664"
         cx="1.166"
         style="fill:black;stroke:none" />
      <circle
         id="circle5860"
         r="0.45"
         cy="0.093"
         cx="1.151"
         style="fill:black;stroke:none" />
      <circle
         id="circle5862"
         r="0.45"
         cy="10.093"
         cx="1.151"
         style="fill:black;stroke:none" />
      <circle
         id="circle5864"
         r="0.45"
         cy="4.451"
         cx="1.302"
         style="fill:black;stroke:none" />
      <circle
         id="circle5866"
         r="0.45"
         cy="3.763"
         cx="3.047"
         style="fill:black;stroke:none" />
    </pattern>
  </defs>
  <sodipodi:namedview
     id="base"
     pagecolor="#ffffff"
     bordercolor="#666666"
     borderopacity="1.0"
     inkscape:pageopacity="0.0"
     inkscape:pageshadow="2"
     inkscape:zoom="2"
     inkscape:cx="199.47092"
     inkscape:cy="58.115617"
     inkscape:document-units="mm"
     inkscape:current-layer="layer1"
     showgrid="false"
     inkscape:window-width="1658"
     inkscape:window-height="1031"
     inkscape:window-x="732"
     inkscape:window-y="61"
     inkscape:window-maximized="0"
     inkscape:snap-global="false"
     fit-margin-top="1"
     fit-margin-right="1"
     fit-margin-bottom="1"
     fit-margin-left="1" />
  <metadata
     id="metadata7">
    <rdf:RDF>
      <cc:Work
         rdf:about="">
        <dc:format>image/svg+xml</dc:format>
        <dc:type
           rdf:resource="http://purl.org/dc/dcmitype/StillImage" />
        <dc:title>sheep - lineart</dc:title>
        <cc:license
           rdf:resource="http://creativecommons.org/publicdomain/zero/1.0/" />
        <dc:subject>
          <rdf:Bag>
            <rdf:li>sheep</rdf:li>
            <rdf:li>farm</rdf:li>
            <rdf:li>animal</rdf:li>
            <rdf:li>schaf</rdf:li>
            <rdf:li>Bauernhof</rdf:li>
            <rdf:li>tier</rdf:li>
            <rdf:li>line art</rdf:li>
            <rdf:li>outline</rdf:li>
            <rdf:li></rdf:li>
          </rdf:Bag>
        </dc:subject>
        <dc:date>2015-02-19</dc:date>
        <dc:creator>
          <cc:Agent>
            <dc:title>Frank Tremmel</dc:title>
          </cc:Agent>
        </dc:creator>
        <dc:description>line art sheep</dc:description>
      </cc:Work>
      <cc:License
         rdf:about="http://creativecommons.org/publicdomain/zero/1.0/">
        <cc:permits
           rdf:resource="http://creativecommons.org/ns#Reproduction" />
        <cc:permits
           rdf:resource="http://creativecommons.org/ns#Distribution" />
        <cc:permits
           rdf:resource="http://creativecommons.org/ns#DerivativeWorks" />
      </cc:License>
    </rdf:RDF>
  </metadata>
  <g
     inkscape:label="Ebene 1"
     inkscape:groupmode="layer"
     id="layer1"
     transform="translate(2.2996004,-943.10726)">
    <path
       style="fill:#ffffff;fill-opacity:1;fill-rule:evenodd;stroke:#ff00ff;stroke-width:0.35433072;stroke-linecap:butt;stroke-linejoin:miter;stroke-miterlimit:4;stroke-dasharray:none;stroke-opacity:1"
       d="m 35.885669,970.16104 5.656854,-0.17678 5.656855,3.0052 10.606601,1.41422 c 0,0 10.48063,-0.82227 11.844039,-1.23744 0.911028,-0.27742 8.182194,-2.46619 10.013772,-2.09987 l 13.143975,4.04441 5.480078,4.77297 2.651647,9.54595 0.35356,16.617 -2.828431,3.5355 c -1.458841,-0.899 -2.917683,-1.8468 -4.376524,-3.889 l -1.28033,4.7729 -3.18198,5.6569 6.540737,4.9497 -2.12132,10.0763 2.474874,4.4194 -2.474874,3.3588 c 1.244904,2.2392 2.830241,4.4783 2.65165,6.7175 -3.630735,0.7299 -7.309363,2.0346 -10.783378,0.8839 l -0.53033,-1.9446 4.065864,-5.6568 -0.53033,-9.1924 c -0.941326,0.353 -3.861317,-5.0043 -3.358757,-5.8336 0.176776,-0.7072 -2.121321,-4.0659 -2.121321,-4.0659 l -3.18198,-0.7071 0.707107,3.3587 -3.358758,5.8337 1.039214,7.8603 -1.21599,2.7463 -0.176777,3.3587 c -3.476608,0.5427 -6.953217,1.5114 -10.429825,-0.7071 l 4.949747,-5.8336 2.298097,-10.7834 -3.889087,-3.0052 -1.06066,-5.6568 c -8.878296,-0.2563 -17.676108,-0.1101 -26.870058,-1.9446 l 0,10.4298 1.414214,10.6066 -1.414214,3.182 -0.176776,3.3588 c -1.366857,1.1438 -2.89601,1.8007 -4.596195,1.9445 -1.457673,0.1488 -2.693037,0.7422 -4.77297,-0.3535 l 3.005203,-4.0659 2.298098,-6.1872 -2.828428,-9.5459 0,-3.7123 -1.06066,-1.4142 c -0.107597,1.9369 -1.023223,2.931 -2.12132,3.7123 l 0.707107,7.4246 -1.944544,3.5355 1.06066,6.8943 c -0.01781,1.0223 -1.356866,1.384 -2.298097,1.9446 -0.508205,1.5591 -1.323673,3.0157 -2.828427,4.2426 -2.357023,0.6805 -4.714045,1.4657 -7.071068,0.5303 1.465284,-2.0205 1.091108,-3.4278 4.772971,-6.1872 0.06396,-1.9481 1.476864,-4.8598 2.65165,-7.6014 l -1.414213,-7.071 1.59099,-3.182 0.53033,-8.1317 c -1.335242,0.7722 -2.778268,1.1942 -4.772971,-0.1768 -1.542822,-2.0624 -0.664397,-4.1248 -0.707106,-6.1872 l -5.656855,-3.3588 1.237437,-5.65681 -2.298097,-4.59619 c -0.03961,-0.70034 0.278906,-1.63944 1.237437,-3.00521 -3.129059,-1.58739 -4.283906,-4.3593 -5.833631,-6.89429 l -1.4142134,-8.48528 2.1213204,-8.13173 -1.414214,0.39645 -2.8284268,1.19454 -4.2015873,-2.04809 -1.2784902,-2.90165 2.298097,-3.35876 10.0762713,-6.01041 0.291054,-1.80882 c -1.044246,0.51687 -1.88643,-0.39525 -2.765927,-1.19638 0.0111,-0.41248 -0.0659,-0.82496 1.237436,-1.23744 l 3.181981,-1.06066 c -0.417034,0.16311 -1.208447,-0.79691 -1.944544,-1.59099 l 4.065864,-1.06066 7.601398,0.70711 4.772971,4.59619 0.353553,2.12132 c 2.229882,0.0342 4.498844,0.4202 6.894292,1.94454 -1.306309,2.66868 -2.976904,4.88201 -4.949748,6.71752 z"
       id="path4609"
       inkscape:connector-curvature="0"
       sodipodi:nodetypes="ccccscccccccccccccccccccccccccccccccccccccccccccccccccccccccccccccccccccccccccccccccccc" />
    <path
       style="fill:url(#pattern6090);fill-opacity:1;fill-rule:evenodd;stroke:#ff6600;stroke-width:0.35433072;stroke-linecap:butt;stroke-linejoin:miter;stroke-miterlimit:4;stroke-dasharray:none;stroke-opacity:1"
       d="m 94.629181,977.24539 c 1.42871,1.36891 4.444469,2.02576 3.901779,5.36607 1.14285,0.99404 1.7112,2.69364 1.90179,5.11604 0.77908,1.7857 1.2303,3.884 0.35714,5.6697 1.69683,0.1523 1.54248,3.8182 0.76786,6.4464 -1.16426,1.5925 0.0605,5.0168 0.0625,6.5714 -0.18025,0.8146 -2.11803,2.8012 -3.55424,2.9011 -0.80517,0.056 -3.227699,-2.0828 -4.177899,-3.8743 -0.68869,-0.4848 0.45914,-1.9119 1.38392,-3.5982 -0.94864,0.1357 -1.94077,0.4237 -1.96428,-2.6786 0.58218,-1.8087 0.88319,-4.3245 3.321429,-4.9732 -0.958239,-1.268 -1.793329,-1.5949 -1.437499,-4.9286 -0.15675,-1.3095 0.22057,-2.0565 0.89285,-3.4285 -2.591251,-1.35108 -3.3339,-5.57182 -1.45535,-8.58931 z"
       id="path4159-2-9"
       inkscape:connector-curvature="0"
       sodipodi:nodetypes="ccccccsccccccc" />
    <g
       id="g6276"
       style="fill:url(#pattern6370);fill-opacity:1;stroke:none">
      <path
         sodipodi:nodetypes="ccccccccccccccccc"
         inkscape:connector-curvature="0"
         id="path4155-3-6-5"
         d="m 27.752005,1015.3278 -0.750622,7.7868 c -1.05428,1.7327 -1.619766,4.9634 -0.443746,7.3079 0.30568,1.7571 -0.528655,2.0647 -0.249005,3.2946 -0.237877,2.2943 -1.569112,4.7656 -2.206122,7.2367 -1.21612,0.8929 -3.302702,2.7579 -3.104362,3.6508 l -1.605347,1.6919 c 1.126711,1.1219 1.791657,1.1756 2.666007,1.0858 1.39722,-0.2888 3.84384,-0.055 4.5428,-0.809 1.34848,-1.0417 3.212892,-3.3206 2.668702,-4.3623 0.50483,-0.9913 1.941437,-0.6299 1.767767,-1.1689 1.25611,-1.131 0.568016,-6.5929 -0.0018,-7.7239 l 1.8418,-4.0313 c -0.284941,-2.4116 -0.335727,-2.8499 -0.70352,-6.8939 1.926269,-1.1976 1.344086,-7.1232 1.962497,-8.8998 -3.022375,-0.1633 -4.570029,0.2602 -8.090006,0.9184 z"
         style="fill:url(#pattern6489);fill-opacity:1;fill-rule:evenodd;stroke:none;stroke-width:0.35433072;stroke-linecap:butt;stroke-linejoin:miter;stroke-miterlimit:4;stroke-dasharray:none;stroke-opacity:1" />
      <path
         sodipodi:nodetypes="cccccccccccccccccc"
         inkscape:connector-curvature="0"
         id="path4157-8-3-5"
         d="m 77.451002,1014.0292 c 0.712726,1.6668 0.638745,3.4646 2.623669,4.9193 1.077512,0.2181 1.325503,2.6233 2.928902,2.0816 1.30175,0.5046 2.830792,4.0587 5.122223,8.0924 0.896368,0.4553 0.943225,2.7088 0.947284,6.4175 -0.471243,1.6893 0.880618,2.288 0.251707,3.3243 -1.410908,3.126 -2.647673,3.3475 -3.775615,4.7643 -0.71166,1.9814 0.06924,3.058 0.644668,2.8868 3.634218,0.3278 7.741043,0.01 10.212544,-1.2908 0.640272,-0.5197 -1.687264,-4.5608 -2.618638,-6.3571 0.05762,-2.0997 1.842887,-2.3779 3.186299,-3.7667 -1.819664,-2.5123 -2.395493,-1.8446 -3.189121,-4.8765 0.954343,-1.6106 2.04184,-6.2834 2.285026,-8.8344 0.65039,-1.8298 -2.663442,-2.0198 -3.473487,-2.6216 -0.466451,-0.4545 -0.949717,-3.4412 -2.260882,-3.5133 l -3.292308,-0.3247 -2.181449,0.3545 z"
         style="fill:url(#pattern6487);fill-opacity:1;fill-rule:evenodd;stroke:none;stroke-width:0.35433072;stroke-linecap:butt;stroke-linejoin:miter;stroke-miterlimit:4;stroke-dasharray:none;stroke-opacity:1" />
    </g>
    <g
       id="g6372"
       style="fill:url(#pattern6466);fill-opacity:1;stroke:none">
      <path
         sodipodi:nodetypes="ccccccccccccccccc"
         inkscape:connector-curvature="0"
         id="path4155-3-6"
         d="m 33.383161,1015.3631 2.166193,5.6654 c -1.05428,1.7327 -0.735882,3.6376 0.440138,5.9821 0.83601,-0.099 1.3275,1.1808 1.60715,2.4107 0.99956,2.5595 -0.154898,3.9701 -0.261578,6.5296 -1.21612,0.8929 -1.534935,2.4928 -1.336595,3.3857 l -1.782124,1.5151 c -2.05527,3.2432 0.02389,3.3853 0.89824,3.2955 1.39722,-0.2888 4.639335,-0.055 5.338295,-0.809 1.34848,-1.0417 2.329009,-2.1716 1.784819,-3.2133 0.50483,-0.9913 0.527223,-1.7789 0.353553,-2.3179 1.25611,-1.131 1.186735,-2.7922 0.616925,-3.9232 l -0.456298,-5.6223 c 0.24539,-5.8587 0.282992,-6.739 -0.791908,-10.2526 -0.28344,-1.5512 -0.07013,-2.3502 0.548283,-4.1268 -2.122302,-1.0204 -3.775132,-0.1628 -5.438355,0.6532 z"
         style="fill:url(#pattern6466);fill-opacity:1;fill-rule:evenodd;stroke:none;stroke-width:0.35433072;stroke-linecap:butt;stroke-linejoin:miter;stroke-miterlimit:4;stroke-dasharray:none;stroke-opacity:1" />
      <path
         sodipodi:nodetypes="ccccccccccccccccc"
         inkscape:connector-curvature="0"
         id="path4157-8-3"
         d="m 70.057497,1010.828 -2.931629,3.6993 c 1.02106,0.4075 -0.04937,2.1111 1.625094,1.8652 0.92805,3.9894 2.564141,7.6464 4.895461,8.1277 0.80039,0.6084 0.506172,4.4624 -0.975858,7.6929 -0.766028,1.5777 -0.90289,1.9816 -0.89286,2.8571 -1.947673,2.8229 -2.642857,3.1911 -4.006189,4.3831 -1.05484,1.822 -1.040535,2.6494 -0.443745,2.5839 l 9.590815,0.8822 c 0.72296,-0.3967 0.697534,-0.9152 0.102744,-2.8492 0.432525,-2.0554 0.404746,-2.7925 1.97506,-3.9184 -0.549822,-4.1809 -1.00653,-4.3938 -1.24462,-7.5188 0.436737,-2.0068 1.979082,-3.4211 2.674984,-5.8874 0.96742,-1.6838 -0.724984,-3.9817 -1.414214,-4.7188 -0.37757,-0.5306 -1.567507,-3.6031 -2.844577,-3.9088 l -2.186386,-1.6789 z"
         style="fill:url(#pattern6466);fill-opacity:1;fill-rule:evenodd;stroke:none;stroke-width:0.35433072;stroke-linecap:butt;stroke-linejoin:miter;stroke-miterlimit:4;stroke-dasharray:none;stroke-opacity:1" />
    </g>
    <path
       style="fill:url(#pattern6274);fill-opacity:1;fill-rule:evenodd;stroke:#ff0000;stroke-width:0.35433072;stroke-linecap:butt;stroke-linejoin:miter;stroke-miterlimit:4;stroke-dasharray:none;stroke-opacity:1"
       d="m 21.998999,953.59124 c -0.40955,-0.18925 -0.925973,-0.92529 -2.225858,-1.32583 l -1.96967,-0.46527 c -0.26529,-0.75553 -0.632195,-1.35863 -1.365308,-1.41242 -1.89456,0.60283 -4.178072,1.12465 -4.693559,1.86692 1.360073,1.24135 3.0737,1.17118 3.54989,1.41781 -0.12176,1.61235 -1.581477,2.19986 -2.581205,2.59736 l -4.0999666,2.23483 -4.7330416,3.2107 -1.699125,2.85715 c -0.39206,1.76563 0.047388,3.36069 1.3383884,2.93834 0.43657,0.63476 1.6862336,1.83165 3.3731236,2.27638 1.576455,0.21801 1.9247398,-0.39784 3.3369012,-1.19955 0.93755,0.3016 1.992345,-0.0405 3.106025,-0.6584 l 0.981248,-1.00484 c 0.178149,-1.01343 -0.275133,-2.05031 1.073224,-3.05725 1.66922,-1.1289 1.485589,-0.1692 3.703073,-2.61716 1.072,-1.25569 2.172732,-2.58825 2.454942,-4.08913 1.59651,-1.91453 0.999748,-3.03203 0.450918,-3.56964 z"
       id="path4161-6-3"
       inkscape:connector-curvature="0"
       sodipodi:nodetypes="ccccccccccccccccccc" />
    <path
       style="fill:none;fill-rule:evenodd;stroke:#c83737;stroke-width:0.35433072;stroke-linecap:butt;stroke-linejoin:miter;stroke-miterlimit:4;stroke-dasharray:none;stroke-opacity:1"
       d="m 28.345157,955.13263 c 3.0553,0.60378 3.008508,-0.15718 5.197415,-0.005 1.19965,0.009 3.28994,1.01924 3.42673,1.73658 -2.493473,0.48203 -3.420675,0.44652 -4.08327,0.41087 l -1.382237,1.35534 c -2.03287,1.53869 -3.812826,1.3933 -4.604036,1.75698 -0.40176,-0.41809 -2.920579,-3.47501 -0.322369,-6.13829 z"
       id="path4165-7-7"
       inkscape:connector-curvature="0"
       sodipodi:nodetypes="cccccccc" />
    <path
       style="fill:url(#pattern6182);fill-opacity:1;fill-rule:evenodd;stroke:#de8787;stroke-width:0.35433072;stroke-linecap:butt;stroke-linejoin:miter;stroke-miterlimit:4;stroke-dasharray:none;stroke-opacity:1"
       d="m 27.553287,960.44535 c 0.50102,-0.58446 1.628282,-0.92696 2.774132,-0.97407 l 2.225868,-1.52593 c 0.50507,-0.99998 4.436254,-1.05527 4.987324,-0.65956 0.77731,0.55817 -1.203244,2.01368 -1.594474,2.98099 l -2.58928,2.94643 c -3.07275,0.54971 -5.29116,-0.58291 -5.80357,-2.76786 z"
       id="path4163-3-1"
       inkscape:connector-curvature="0"
       sodipodi:nodetypes="cccsccc" />
    <path
       style="color:#000000;font-style:normal;font-variant:normal;font-weight:normal;font-stretch:normal;font-size:medium;line-height:normal;font-family:sans-serif;text-indent:0;text-align:start;text-decoration:none;text-decoration-line:none;text-decoration-style:solid;text-decoration-color:#000000;letter-spacing:normal;word-spacing:normal;text-transform:none;direction:ltr;block-progression:tb;writing-mode:lr-tb;baseline-shift:baseline;text-anchor:start;white-space:normal;clip-rule:nonzero;display:inline;overflow:visible;visibility:visible;opacity:1;isolation:auto;mix-blend-mode:normal;color-interpolation:sRGB;color-interpolation-filters:linearRGB;solid-color:#000000;solid-opacity:1;fill:#000000;fill-opacity:1;fill-rule:evenodd;stroke:none;stroke-width:1.77165353;stroke-linecap:butt;stroke-linejoin:miter;stroke-miterlimit:4;stroke-dasharray:none;stroke-dashoffset:0;stroke-opacity:1;color-rendering:auto;image-rendering:auto;shape-rendering:auto;text-rendering:auto;enable-background:accumulate"
       d="m 13.324754,954.31688 c 0.09248,0.62469 -0.473437,0.54261 -1.31731,1.27773 -2.705258,2.35661 -6.2013722,3.0328 -8.7639056,5.448 -1.1378853,1.07246 -2.25017963,3.1718 -1.9502521,5.02927 0.1033129,0.63983 0.8161309,2.22323 2.1951268,2.40025 1.9551753,1.95451 3.671622,4.04576 7.3377589,0.79984 -1.6071426,3.33928 -2.9169989,9.69923 -1.5976752,14.00888 1.1166172,3.6475 2.7367292,7.52714 6.2285342,8.68058 -1.72314,2.48921 0.430986,4.72222 1.249703,7.01373 0.463097,1.29614 -0.04204,2.67114 -0.579857,3.97314 -1.72344,3.5342 2.130659,5.9359 5.124343,6.2283 -3.367333,5.7647 3.356817,8.4359 5.702201,6.8232 -0.296315,1.9268 -2.73669,4.5904 -0.819758,7.2171 -1.798652,2.9967 -1.74713,6.2539 -0.596645,8.6638 0.543797,4.6774 -1.871974,5.1652 -1.967667,8.7034 -1.38379,1.1906 -4.676774,4.579 -5.329044,6.0765 0.471807,0.9099 3.841688,1.9649 5.677662,1.4043 4.084505,-0.016 5.720953,-3.1123 6.462656,-5.7025 1.173361,-0.6927 2.061165,-1.2359 2.236346,-2.3038 0.250494,-1.5269 -0.189332,-3.485 -0.375323,-5.4024 -0.14158,-1.4596 0.10351,-2.9429 0.977239,-3.6907 1.449903,-1.3511 -0.270337,-5.3852 -0.203654,-8.126 1.042673,-1.072 0.831278,-2.6774 1.48919,-2.6127 -0.670918,4.8176 1.914875,8.181 2.213892,11.5988 0.370107,2.328 -0.493195,4.4234 -1.606724,6.9728 -1.799231,1.7164 -3.496666,3.6634 -3.535333,5.4795 2.36991,0.8857 4.340873,0.8181 7.180219,0.899 0.826445,0.024 5.095994,-2.5813 4.986234,-3.6786 -0.993643,-1.1857 -0.613372,-1.656 -0.293699,-2.8342 1.291945,-0.913 2.081352,-2.1802 2.082756,-2.6614 0.0014,-0.4811 -0.785193,-1.944 -0.965877,-2.718 0.333832,-4.0621 -0.713175,-9.8636 -1.485088,-14.0493 -0.147017,-2.032 0.882311,-2.1669 1.901317,-3.0619 1.53111,0.456 1.494521,0.4175 4.565043,1.0534 4.952173,2.2136 7.354104,-1.7454 12.269292,0.017 2.306479,0.094 2.047539,1.3489 4.381998,0.3528 1.49221,-0.397 2.286587,1.263 2.408541,2.7588 -0.07267,3.4278 2.424486,3.7955 4.262142,4.9191 0.315097,1.336 -0.239171,4.324 -0.993354,6.3924 -1.017108,1.3543 -0.728599,3.0445 -1.776707,4.8267 -1.330631,0.6876 -2.817705,2.195 -3.47051,3.0216 -0.428488,1.1329 -1.275836,1.9239 -1.128257,3.0487 3.13147,1.2228 9.472678,1.453 12.359308,0.6947 0.664519,-1.3787 0.410734,-3.0974 0.432509,-4.3208 0.466501,-1.1708 0.920669,-1.6995 1.842547,-2.2254 -0.363641,-1.8633 -1.267018,-6.892 -1.189068,-8.0464 1.374861,-3.8537 3.249102,-3.5718 2.987605,-7.0854 3.486457,0.9001 1.818903,4.0601 3.962884,7.3059 2.964644,1.4027 2.385058,6.3609 2.453896,9.8632 -0.634031,1.4728 -2.500434,2.9593 -3.588449,5.1172 -0.463003,0.861 0.15322,3.6829 0.5044,3.7497 1.1358,0.1667 4.43459,0.055 6.473969,-0.1625 2.39617,-0.2553 5.324048,-1.1737 5.876098,-2.2186 -0.440754,-1.878 -0.930302,-3.421 -2.232138,-5.3088 -0.766181,-0.5728 0.151662,-1.3903 0.663588,-2.3946 0.567203,-1.1127 1.439385,-1.1754 1.554507,-2.6674 -0.892496,-0.9731 -1.593353,-2.8626 -2.259958,-4.3479 0.962545,-2.9673 2.222539,-8.0466 1.65426,-10.1395 -0.26609,-0.98 -2.193548,-1.1319 -2.94076,-1.9547 -1.360622,-1.2277 -1.429427,-1.7016 -2.376573,-2.9133 0.0863,-1.0514 1.292598,-1.6162 1.777305,-2.6313 0.95593,-2.0021 0.332756,-4.3502 0.937678,-6.0838 0.522151,1.2371 2.875148,4.4083 4.703204,3.7169 1.48877,-0.5631 3.0574,-2.076 3.63117,-4.0956 -0.5024,-4.3867 1.49915,-9.37474 -0.18179,-13.49666 0.0653,-3.67021 -1.42243,-8.92892 -2.801906,-12.51714 -1.787375,-3.8175 -7.1972,-6.67765 -11.056577,-8.50095 -5.261456,-1.82296 -11.306647,-3.07692 -16.612355,-0.61743 -7.934592,2.01797 -15.838832,2.67465 -23.793338,1.01695 -2.093917,-0.43637 -4.189296,-2.47449 -6.176424,-2.98495 -1.727998,-0.44389 -3.732601,0.26183 -5.480362,-0.0886 -1.034483,-1.56527 -1.879421,-3.57592 -1.863252,-5.42994 0.01132,-1.29824 2.831343,-5.08293 3.917663,-6.02088 -0.163974,-2.09081 -4.182389,-3.09182 -6.815498,-3.71712 -0.908514,-4.23839 -5.385795,-7.49536 -9.652265,-7.40654 l -5.120261,0.46563 c -0.657839,0.0598 -2.377046,0.53014 -2.870353,0.98084 -0.491536,0.44908 -0.260134,1.75187 1.224367,1.85245 -2.07134,1.12753 -3.997604,0.66556 -4.327476,2.27884 -0.329872,1.61329 2.1314,1.45926 2.206291,2.08678 z m 5.72066,-5.83582 c 4.059988,-0.24405 9.00564,0.62809 10.804195,5.01357 0.67209,0.79881 0.737433,1.20981 0.478949,1.36456 -0.636901,0.3813 -3.239828,-0.79321 -3.576477,-1.55569 -2.03996,2.23946 -3.013554,4.31072 -0.322437,7.2876 0.03449,1.13706 1.394434,2.11438 2.709608,2.77792 1.517292,0.76551 2.415098,1.42241 3.455506,1.60471 0.401651,1.92012 1.550154,3.34637 1.862815,5.10943 0.194834,1.09865 0.289125,1.77644 0.838935,2.65853 0.588282,0.94382 0.712922,1.16405 1.502086,1.76025 1.319408,0.75897 1.753527,1.71575 2.472207,1.22862 0.326951,0.006 -0.186385,-0.5935 -0.423172,-1.43499 -0.189643,-0.67394 -0.485662,-1.72375 -0.425285,-2.63742 0.02156,-0.32619 0.821888,-0.85821 1.129859,-0.88856 0.307972,-0.0303 1.930171,0.38383 2.209327,0.36437 2.478431,2.432 5.865041,3.1588 9.355308,3.68142 8.135514,1.21819 17.447936,0.5272 25.246503,-2.27349 4.572336,-0.72479 9.161287,0.99708 13.365666,2.61197 5.348753,1.60033 1.118967,8.00736 5.667477,10.78215 -1.620773,2.60915 -0.817826,3.51879 -1.123733,5.9804 -0.09953,0.80092 1.622719,2.26073 1.650847,2.1569 -0.658953,0.14437 -2.056084,0.73498 -1.984983,1.22664 -0.424972,0.3753 -1.374671,1.89077 -1.323132,3.37722 0.06513,1.87863 0.107068,2.78543 1.483777,3.67783 -1.00759,0.9128 -0.593921,1.6675 -0.82469,2.6478 -0.353518,1.5018 -0.455781,4.0463 -1.555092,6.2904 -0.860432,1.7564 -2.742554,3.2602 -3.106435,4.3905 -0.434621,1.35 0.0065,0.99 1.057702,2.5308 1.900255,1.2784 3.297134,2.2175 4.926822,3.2471 -0.241565,1.5608 0.1151,3.256 -0.195178,5.0079 -0.338655,1.9124 -1.71738,3.2494 -1.476121,4.9484 0.75646,1.2964 2.115526,2.8978 2.601438,3.8746 -0.75007,1.0991 -2.045949,1.438 -2.401432,2.4329 0.269516,1.3699 0.18837,2.3376 0.637361,3.3107 0.763297,1.0864 1.616432,1.7845 1.97622,3.3972 -0.394778,0.4792 -2.635001,0.9905 -3.569902,1.1849 -2.004127,0.4167 -4.063528,0.5687 -5.883059,0.059 -0.161522,-0.61 -0.321026,-0.7281 0.06118,-1.5452 1.808263,-1.8162 3.657388,-3.677 4.36872,-5.0568 -0.729592,-4.2375 1.177086,-8.9735 -2.669068,-12.182 -1.528647,-3.6232 -2.910151,-8.4268 -7.27917,-9.2684 -1.448768,-0.2544 -1.796568,-1.2534 -1.970622,-2.3189 -0.01667,-0.1021 1.154903,0.4745 1.699624,0.466 0.565035,-0.01 1.601303,-0.5487 1.704298,-0.5506 0.759844,-0.014 1.44862,0.9003 2.389096,0.8671 0.918562,-0.032 2.732405,-0.5531 3.577236,-1.0261 -0.547286,-0.7825 -3.409535,-0.3809 -3.503822,-0.3968 -0.551431,-0.093 -1.150832,-1.0859 -2.148682,-1.1781 -0.511286,-0.047 -1.549791,0.4296 -2.057964,0.4528 -0.586139,0.027 -2.127696,-0.8222 -2.171008,-0.8959 -0.336874,-0.5732 -0.97163,-0.895 -2.287623,-0.6851 -3.119151,-0.5006 -5.863815,-6.1615 -7.913071,-0.9225 -0.399429,1.7408 -1.901297,2.912 -2.913581,3.4224 -2.432951,-0.1897 -4.13173,-0.4097 -6.125441,-0.6857 -4.940854,0.6016 -9.907008,0.6718 -14.698467,-1.0023 -3.076092,-0.7181 -6.266317,-2.0362 -8.409794,0.2773 -3.155524,-1.5052 -3.435397,0.2009 -3.001776,2.8447 0.04425,1.9958 0.703078,5.0963 -2.063915,5.493 1.455267,3.4308 1.390944,8.1417 -0.949691,10.5744 0.05863,3.7235 2.913397,7.7469 -1.147005,9.185 -0.09994,2.1527 -1.162326,3.3789 -3.596615,4.2081 -1.560539,0.5865 -2.696684,0.2323 -3.854644,0.4209 0.07602,-1.04 3.241252,-4.1248 4.352473,-4.5907 -0.689001,-1.8857 0.21345,-3.7852 1.115777,-5.8078 0.457945,-1.0265 1.272667,-2.4798 0.885113,-3.633 -0.07794,-3.3576 -1.593233,-6.7728 0.878186,-9.0131 -1.539433,-2.2966 0.18611,-6.3084 0.588134,-9.579 -1.820833,0.053 -2.937025,1.1047 -4.695556,-0.2355 -4.135973,-1.6247 1.034231,-5.5442 0.448294,-6.0913 -3.989208,1.2922 -6.41018,-2.0426 -6.657279,-5.6215 2.417817,-3.8784 -3.018212,-4.80639 -1.820312,-8.0118 1.361585,-1.17512 1.415316,-0.90288 2.619254,-1.72112 -4.604777,-1.76224 -6.524534,-6.09898 -7.747677,-10.91114 -0.655786,-2.58003 -0.72768,-6.9283 0.167837,-9.50903 0.506267,-1.45898 0.912234,-2.78589 2.869626,-3.00659 2.62584,-2.24025 -1.774454,-3.43553 2.593667,-4.04251 3.072955,-3.01018 6.466044,-6.3898 5.839236,-10.51365 -0.479814,-1.33857 -2.06823,-2.06437 -4.666848,-2.43975 -0.367488,-0.98039 -3.289896,-1.69347 -2.738427,-2.46264 0.660494,-0.92124 3.269232,-0.47762 3.688824,-0.50284 z m 2.548336,6.19716 c -0.0032,1.72843 -0.742041,3.13733 -1.54245,4.36553 -0.804365,1.23426 -1.989503,2.69272 -3.396,3.46108 -2.303545,0.16057 -2.884033,2.5651 -3.118154,4.07618 -0.206361,1.33191 -1.95077,1.4348 -3.9634658,0.75029 -0.1775923,1.12105 -1.4296128,1.80222 -2.49594,1.59993 -1.1295571,-0.21429 -3.0884584,-1.47554 -3.510391,-2.00884 1.0731637,0.40659 2.4885439,0.50278 3.4306037,0.37251 1.5273798,-0.25292 3.0512571,-1.09618 2.9189985,-1.48466 -0.1578278,-0.49911 -0.9447799,-0.29372 -1.5790288,-0.11387 -0.6996413,0.21816 -1.2524009,0.39941 -2.735632,0.43897 -1.3117292,0.20607 -2.5743158,-0.42565 -2.5810887,-1.00616 -0.00497,-0.42577 0.6814992,-1.51692 1.3061375,-1.77232 0.270054,0.0909 0.482678,0.6148 0.9221576,0.79692 0.7298529,0.30245 1.7524019,0.21729 2.2559074,-0.28077 1.073983,-1.06236 -0.025383,-0.69313 -0.9520116,-0.98532 -0.454174,-0.14322 -0.6874048,-0.4981 -1.017585,-0.73939 0.8753189,-1.4209 2.8445752,-2.39698 4.3971353,-3.41284 1.9635249,-1.28477 4.4097969,-1.81814 5.8332639,-3.70326 0.172279,-0.38067 -0.02681,-1.14429 -0.01514,-1.50613 0.127732,-0.81563 -3.226006,-0.908 -3.251382,-1.17297 0.01084,-0.47463 2.854039,-1.1869 4.222502,-1.50299 0.0097,0.38879 0.214758,1.332 1.500452,1.53571 2.567308,0.40676 3.373377,1.07286 3.371111,2.2924 z m 13.479179,1.73106 c -0.672668,0.83986 -2.527995,0.0853 -3.794918,1.21828 -1.772432,1.58506 -3.306913,2.55658 -4.47695,2.08233 -0.800434,-1.34707 -1.485392,-4.16959 -0.0033,-4.8894 0.326819,-0.0401 1.467765,0.96034 2.190877,0.9237 0.916996,-0.0465 2.0149,-0.055 2.944376,0.0638 1.662432,0.21234 2.78606,0.83176 3.139898,0.60133 z m 1.038512,1.22456 c 0.139787,0.44826 -0.120836,0.4631 -0.342676,1.17379 -0.409818,1.31289 -2.174456,3.03527 -2.98622,3.94705 -1.458517,-0.0199 -4.021658,-0.72321 -4.723219,-2.06118 2.096026,-0.64827 2.925764,-0.51208 4.711176,-2.33624 1.484471,-0.54963 2.262805,-0.96853 3.340939,-0.72342 z m 58.474497,21.44673 c 2.074472,-0.80874 3.537239,5.80645 4.855435,9.31247 1.134367,3.25712 -0.502873,5.30134 0.871127,7.05081 -0.349136,1.54337 -0.2067,2.54137 -0.1759,4.14815 0.0424,2.2084 -0.3532,4.3657 -0.80819,6.6886 -0.630933,0.578 -1.02817,1.5019 -1.797114,1.253 -1.345392,-0.4353 -2.080471,-1.1789 -3.073032,-2.3769 -0.235092,-1.1612 1.21204,-2.8356 1.634242,-3.501 0.214766,-0.7706 -0.669194,-0.2604 -1.344429,-0.3503 -0.822694,-0.1096 -1.421187,-0.8529 -0.423791,-2.65259 -0.325732,-1.47396 0.69332,-3.13675 1.917669,-3.60042 0.926562,-0.35089 2.084002,0.4004 2.21826,0.0681 0.0974,-0.24107 -0.204141,-0.54073 -1.180938,-0.99109 -0.84285,-0.71869 -1.710273,-2.77893 -1.72112,-3.86145 -0.02249,-2.24492 1.168014,-3.52071 1.182216,-4.71353 -1.091542,-0.6955 -2.220582,-2.00537 -2.539021,-3.31259 -0.261947,-1.07531 0.167509,-2.10596 0.384566,-3.16126 z m -24.28125,32.39653 c 2.478962,1.7086 4.229224,1.785 5.954821,3.7912 0.815535,2.274 2.233955,3.5357 3.264004,5.1893 0.577508,2.4741 -2.084288,5.3401 -2.998582,7.9457 0.145539,2.2704 0.882025,4.9309 1.224242,7.1487 -0.67472,0.3587 -1.183737,1.3039 -1.578678,2.4768 0.370601,1.5689 0.07735,2.2398 0.115386,3.2403 -2.030761,1.0367 -6.164698,0.7036 -8.034336,-0.061 0.526083,-1.4516 2.273353,-2.5515 3.130052,-3.7671 1.739274,-1.2108 1.222413,-3.4487 2.289869,-5.2453 0.212743,-2.7824 1.048163,-5.0516 1.255773,-7.1257 -0.656536,-1.4603 -2.303666,-2.1863 -3.508426,-3.4396 -0.473453,-2.7455 -1.81582,-7.2945 -3.321765,-7.2741 0.352438,-0.6235 1.757511,-2.318 2.20764,-2.8788 z m -29.049062,2.6577 c 0.156392,1.335 -0.151041,2.4041 -0.93079,4.8336 0.848282,3.2335 2.15173,10.5363 1.384851,14.8421 0.56402,1.2288 0.693211,1.1143 0.796501,1.6451 0.10329,0.5308 -0.438039,1.4418 -1.303447,2.1583 0.594977,1.3748 -0.131894,3.1152 -1.122881,3.9254 -1.079028,0.8821 -3.934609,1.3065 -5.587823,1.3743 -0.720007,-0.4257 0.478025,-1.0735 1.403932,-2.1075 0.975802,-0.9151 0.777934,-1.7292 1.593941,-3.215 0.642964,-1.6435 1.698038,-4.6747 1.225045,-7.6374 -0.316574,-1.9829 -1.36366,-3.8071 -2.309066,-5.1598 -0.09714,-2.5108 0.649671,-4.5736 -1.360796,-6.8219 -1.007513,-2.5672 0.218513,-2.1665 1.900363,-2.1422 1.579925,-1.1275 2.988022,-1.9571 4.31017,-1.695 z"
       id="path4153"
       inkscape:connector-curvature="0"
       sodipodi:nodetypes="csssccscscccccccccssccccccsccccccccccccccccccccccccscccccsccscscccccsscsccccsccccccscscssccssccscsccsccssccscccccsccccccccssscsssccccccccccccsccccccccsscccccssccccscccccscssscsccsccsccccssccccccccccccsscscsscscscccccccccccccccccccccccccccsccccccc" />
    <path
       style="fill:#000000;fill-rule:evenodd;stroke:#000000;stroke-width:0.35433072;stroke-linecap:butt;stroke-linejoin:miter;stroke-miterlimit:4;stroke-dasharray:none;stroke-opacity:1"
       d="m 17.734613,954.77441 c -1.10833,0.0268 -1.98186,0.24573 -1.26269,1.76777 -0.045,0.66311 0.2148,1.08243 1.01015,1.07329 3.48135,-0.21647 2.32638,-0.63451 2.14658,-1.01016 -0.76382,-1.14018 -1.28152,-1.29591 -1.89404,-1.8309 z"
       id="path4190-0-9"
       inkscape:connector-curvature="0"
       sodipodi:nodetypes="ccccc" />
    <path
       style="fill:#000000;fill-rule:evenodd;stroke:#000000;stroke-width:0.35433072;stroke-linecap:butt;stroke-linejoin:miter;stroke-miterlimit:4;stroke-dasharray:none;stroke-opacity:1"
       d="m 12.685123,953.26426 c 0,0 -0.839,0.37099 -0.75762,1.57836 0.0967,1.43527 1.07329,1.38896 1.07329,1.38896 1.10148,-0.77045 1.54806,-1.65005 1.6415,-2.58851 -0.65239,-0.65376 -1.30478,-0.90094 -1.95717,-0.37881 z"
       id="path4192-4-1"
       inkscape:connector-curvature="0"
       sodipodi:nodetypes="csccc" />
    <path
       style="color:#000000;font-style:normal;font-variant:normal;font-weight:normal;font-stretch:normal;font-size:medium;line-height:normal;font-family:sans-serif;text-indent:0;text-align:start;text-decoration:none;text-decoration-line:none;text-decoration-style:solid;text-decoration-color:#000000;letter-spacing:normal;word-spacing:normal;text-transform:none;direction:ltr;block-progression:tb;writing-mode:lr-tb;baseline-shift:baseline;text-anchor:start;white-space:normal;clip-rule:nonzero;display:inline;overflow:visible;visibility:visible;opacity:1;isolation:auto;mix-blend-mode:normal;color-interpolation:sRGB;color-interpolation-filters:linearRGB;solid-color:#000000;solid-opacity:1;fill:#000000;fill-opacity:1;fill-rule:evenodd;stroke:none;stroke-width:1.77165353;stroke-linecap:butt;stroke-linejoin:miter;stroke-miterlimit:4;stroke-dasharray:none;stroke-dashoffset:0;stroke-opacity:1;color-rendering:auto;image-rendering:auto;shape-rendering:auto;text-rendering:auto;enable-background:accumulate"
       d="m 24.101295,992.95193 c 1.348901,2.03941 1.395806,2.82018 2.590787,3.52303 2.386523,1.40367 4.727197,1.53682 7.255805,0.48589 -4.301034,0.6393 -7.370471,-0.16924 -9.496166,-5.13038 -1.573573,0.99696 -2.185049,0.69723 -3.449758,0.10685 0.520898,0.56171 1.049971,1.69573 3.099332,1.01461 z"
       id="path4277"
       inkscape:connector-curvature="0"
       sodipodi:nodetypes="cscccc" />
    <path
       style="color:#000000;font-style:normal;font-variant:normal;font-weight:normal;font-stretch:normal;font-size:medium;line-height:normal;font-family:sans-serif;text-indent:0;text-align:start;text-decoration:none;text-decoration-line:none;text-decoration-style:solid;text-decoration-color:#000000;letter-spacing:normal;word-spacing:normal;text-transform:none;direction:ltr;block-progression:tb;writing-mode:lr-tb;baseline-shift:baseline;text-anchor:start;white-space:normal;clip-rule:nonzero;display:inline;overflow:visible;visibility:visible;opacity:1;isolation:auto;mix-blend-mode:normal;color-interpolation:sRGB;color-interpolation-filters:linearRGB;solid-color:#000000;solid-opacity:1;fill:#000000;fill-opacity:1;fill-rule:evenodd;stroke:none;stroke-width:1.77165353;stroke-linecap:butt;stroke-linejoin:miter;stroke-miterlimit:4;stroke-dasharray:none;stroke-dashoffset:0;stroke-opacity:1;color-rendering:auto;image-rendering:auto;shape-rendering:auto;text-rendering:auto;enable-background:accumulate"
       d="m 22.962661,977.31158 c -1.826228,2.35398 -0.847513,4.67712 -4.445995,3.99807 -1.598631,-0.30167 -2.906807,-2.50061 -4.837782,-1.95946 1.556061,0.5076 3.625256,2.84888 5.811002,2.83778 1.390499,-0.007 2.683985,-1.10219 3.502932,-4.01118 0.138593,-0.4923 0.628083,-0.97906 0.890826,-1.06179 0.588934,-0.18545 1.494899,0.64786 2.47208,0.20196 -1.159644,-0.20348 -2.067833,-1.71358 -3.393063,-0.005 z"
       id="path4277-4"
       inkscape:connector-curvature="0"
       sodipodi:nodetypes="sscssscs" />
    <path
       style="color:#000000;font-style:normal;font-variant:normal;font-weight:normal;font-stretch:normal;font-size:medium;line-height:normal;font-family:sans-serif;text-indent:0;text-align:start;text-decoration:none;text-decoration-line:none;text-decoration-style:solid;text-decoration-color:#000000;letter-spacing:normal;word-spacing:normal;text-transform:none;direction:ltr;block-progression:tb;writing-mode:lr-tb;baseline-shift:baseline;text-anchor:start;white-space:normal;clip-rule:nonzero;display:inline;overflow:visible;visibility:visible;opacity:1;isolation:auto;mix-blend-mode:normal;color-interpolation:sRGB;color-interpolation-filters:linearRGB;solid-color:#000000;solid-opacity:1;fill:#000000;fill-opacity:1;fill-rule:evenodd;stroke:none;stroke-width:1.77165353;stroke-linecap:butt;stroke-linejoin:miter;stroke-miterlimit:4;stroke-dasharray:none;stroke-dashoffset:0;stroke-opacity:1;color-rendering:auto;image-rendering:auto;shape-rendering:auto;text-rendering:auto;enable-background:accumulate"
       d="m 33.298828,982.56641 c 0.482794,2.06337 2.475375,3.98607 4.198278,4.0724 3.425094,0.17162 4.161705,-0.41875 7.013231,-2.9621 -1.248269,0.50697 -2.776953,2.24382 -4.724936,2.39368 -2.753995,0.21187 -3.932214,0.10489 -5.938348,-3.34966 -0.210197,-0.36542 -0.111386,-1.27635 -0.548225,-0.15432 z"
       id="path4277-1"
       inkscape:connector-curvature="0"
       sodipodi:nodetypes="cscscc" />
    <path
       style="color:#000000;font-style:normal;font-variant:normal;font-weight:normal;font-stretch:normal;font-size:medium;line-height:normal;font-family:sans-serif;text-indent:0;text-align:start;text-decoration:none;text-decoration-line:none;text-decoration-style:solid;text-decoration-color:#000000;letter-spacing:normal;word-spacing:normal;text-transform:none;direction:ltr;block-progression:tb;writing-mode:lr-tb;baseline-shift:baseline;text-anchor:start;white-space:normal;clip-rule:nonzero;display:inline;overflow:visible;visibility:visible;opacity:1;isolation:auto;mix-blend-mode:normal;color-interpolation:sRGB;color-interpolation-filters:linearRGB;solid-color:#000000;solid-opacity:1;fill:#000000;fill-opacity:1;fill-rule:evenodd;stroke:none;stroke-width:1.77165353;stroke-linecap:butt;stroke-linejoin:miter;stroke-miterlimit:4;stroke-dasharray:none;stroke-dashoffset:0;stroke-opacity:1;color-rendering:auto;image-rendering:auto;shape-rendering:auto;text-rendering:auto;enable-background:accumulate"
       d="m 52.206537,980.32399 c 0.123721,1.32226 4.062655,5.9659 6.333685,6.02453 4.684337,0.12094 5.817574,-1.81673 8.6691,-4.36008 -1.292198,0.32537 -1.798476,1.00664 -3.433343,2.44309 -1.399451,1.22961 -2.892329,1.89602 -6.240663,1.11579 -1.204037,-0.28056 -5.14194,-4.84536 -5.328779,-5.22333 z"
       id="path4277-6"
       inkscape:connector-curvature="0"
       sodipodi:nodetypes="cscssc" />
    <path
       style="color:#000000;font-style:normal;font-variant:normal;font-weight:normal;font-stretch:normal;font-size:medium;line-height:normal;font-family:sans-serif;text-indent:0;text-align:start;text-decoration:none;text-decoration-line:none;text-decoration-style:solid;text-decoration-color:#000000;letter-spacing:normal;word-spacing:normal;text-transform:none;direction:ltr;block-progression:tb;writing-mode:lr-tb;baseline-shift:baseline;text-anchor:start;white-space:normal;clip-rule:nonzero;display:inline;overflow:visible;visibility:visible;opacity:1;isolation:auto;mix-blend-mode:normal;color-interpolation:sRGB;color-interpolation-filters:linearRGB;solid-color:#000000;solid-opacity:1;fill:#000000;fill-opacity:1;fill-rule:evenodd;stroke:none;stroke-width:1.77165353;stroke-linecap:butt;stroke-linejoin:miter;stroke-miterlimit:4;stroke-dasharray:none;stroke-dashoffset:0;stroke-opacity:1;color-rendering:auto;image-rendering:auto;shape-rendering:auto;text-rendering:auto;enable-background:accumulate"
       d="m 81.027344,976.5918 c -1.715145,-0.0704 -4.279591,1.10594 -5.979865,2.44321 1.61809,-0.61634 3.714126,-1.8907 5.830431,-1.96576 1.760197,-0.0624 3.920087,1.41588 4.638492,2.95115 0.530144,1.13294 1.25765,1.82778 1.851913,2.79607 0.68155,1.11052 3.20838,-0.75677 4.125673,-1.13354 -1.005772,-0.41777 -3.012588,1.88984 -3.711675,0.88487 0,0 -1.486812,-2.55154 -2.504969,-3.601 -1.724012,-1.77701 -2.728196,-2.3125 -4.25,-2.375 z"
       id="path4277-27"
       inkscape:connector-curvature="0"
       sodipodi:nodetypes="scssscsss" />
    <path
       style="color:#000000;font-style:normal;font-variant:normal;font-weight:normal;font-stretch:normal;font-size:medium;line-height:normal;font-family:sans-serif;text-indent:0;text-align:start;text-decoration:none;text-decoration-line:none;text-decoration-style:solid;text-decoration-color:#000000;letter-spacing:normal;word-spacing:normal;text-transform:none;direction:ltr;block-progression:tb;writing-mode:lr-tb;baseline-shift:baseline;text-anchor:start;white-space:normal;clip-rule:nonzero;display:inline;overflow:visible;visibility:visible;opacity:1;isolation:auto;mix-blend-mode:normal;color-interpolation:sRGB;color-interpolation-filters:linearRGB;solid-color:#000000;solid-opacity:1;fill:#000000;fill-opacity:1;fill-rule:evenodd;stroke:none;stroke-width:1.77165353;stroke-linecap:butt;stroke-linejoin:miter;stroke-miterlimit:4;stroke-dasharray:none;stroke-dashoffset:0;stroke-opacity:1;color-rendering:auto;image-rendering:auto;shape-rendering:auto;text-rendering:auto;enable-background:accumulate"
       d="m 90.16228,1006.3312 c 0.179991,2.1115 -1.119148,4.5568 -2.730612,5.1724 -3.203514,1.2241 -4.086758,0.8908 -7.585787,-0.6444 1.343915,0.096 3.335366,1.2736 5.233965,0.8127 2.684214,-0.6515 3.771365,-1.1181 4.608983,-5.0241 0.08666,-0.4126 -0.289399,-1.2481 0.473451,-0.3166 z"
       id="path4277-1-1"
       inkscape:connector-curvature="0"
       sodipodi:nodetypes="cscscc" />
    <path
       style="color:#000000;font-style:normal;font-variant:normal;font-weight:normal;font-stretch:normal;font-size:medium;line-height:normal;font-family:sans-serif;text-indent:0;text-align:start;text-decoration:none;text-decoration-line:none;text-decoration-style:solid;text-decoration-color:#000000;letter-spacing:normal;word-spacing:normal;text-transform:none;direction:ltr;block-progression:tb;writing-mode:lr-tb;baseline-shift:baseline;text-anchor:start;white-space:normal;clip-rule:nonzero;display:inline;overflow:visible;visibility:visible;opacity:1;isolation:auto;mix-blend-mode:normal;color-interpolation:sRGB;color-interpolation-filters:linearRGB;solid-color:#000000;solid-opacity:1;fill:#000000;fill-opacity:1;fill-rule:evenodd;stroke:none;stroke-width:1.77165353;stroke-linecap:butt;stroke-linejoin:miter;stroke-miterlimit:4;stroke-dasharray:none;stroke-dashoffset:0;stroke-opacity:1;color-rendering:auto;image-rendering:auto;shape-rendering:auto;text-rendering:auto;enable-background:accumulate"
       d="m 73.328648,1008.0059 c -1.715145,0.07 -4.279591,-1.106 -5.979865,-2.4433 1.61809,0.6164 3.714126,1.8907 5.830431,1.9658 1.760197,0.062 3.920087,-1.4159 4.638492,-2.9511 0.530144,-1.133 1.25765,-1.8278 1.851913,-2.7961 0.68155,-1.1105 3.20838,0.7568 4.125673,1.1335 -1.005772,0.4178 -3.012588,-1.8898 -3.711675,-0.8848 0,0 -1.486812,2.5515 -2.504969,3.601 -1.724012,1.777 -2.728196,2.3125 -4.25,2.375 z"
       id="path4277-27-7"
       inkscape:connector-curvature="0"
       sodipodi:nodetypes="scssscsss" />
    <path
       style="color:#000000;font-style:normal;font-variant:normal;font-weight:normal;font-stretch:normal;font-size:medium;line-height:normal;font-family:sans-serif;text-indent:0;text-align:start;text-decoration:none;text-decoration-line:none;text-decoration-style:solid;text-decoration-color:#000000;letter-spacing:normal;word-spacing:normal;text-transform:none;direction:ltr;block-progression:tb;writing-mode:lr-tb;baseline-shift:baseline;text-anchor:start;white-space:normal;clip-rule:nonzero;display:inline;overflow:visible;visibility:visible;opacity:1;isolation:auto;mix-blend-mode:normal;color-interpolation:sRGB;color-interpolation-filters:linearRGB;solid-color:#000000;solid-opacity:1;fill:#000000;fill-opacity:1;fill-rule:evenodd;stroke:none;stroke-width:1.77165353;stroke-linecap:butt;stroke-linejoin:miter;stroke-miterlimit:4;stroke-dasharray:none;stroke-dashoffset:0;stroke-opacity:1;color-rendering:auto;image-rendering:auto;shape-rendering:auto;text-rendering:auto;enable-background:accumulate"
       d="m 90.683098,992.47211 c 0.700819,1.99985 0.05249,4.69181 -1.354451,5.68996 -2.797121,1.98413 -3.735554,1.88173 -7.506817,1.26769 1.325187,-0.243 3.547521,0.40147 5.271266,-0.51822 2.4369,-1.30033 3.373352,-2.02333 3.210434,-6.01478 -0.01893,-0.42114 -0.591487,-1.1365 0.379577,-0.4246 z"
       id="path4277-1-2"
       inkscape:connector-curvature="0"
       sodipodi:nodetypes="cscscc" />
    <path
       style="color:#000000;font-style:normal;font-variant:normal;font-weight:normal;font-stretch:normal;font-size:medium;line-height:normal;font-family:sans-serif;text-indent:0;text-align:start;text-decoration:none;text-decoration-line:none;text-decoration-style:solid;text-decoration-color:#000000;letter-spacing:normal;word-spacing:normal;text-transform:none;direction:ltr;block-progression:tb;writing-mode:lr-tb;baseline-shift:baseline;text-anchor:start;white-space:normal;clip-rule:nonzero;display:inline;overflow:visible;visibility:visible;opacity:1;isolation:auto;mix-blend-mode:normal;color-interpolation:sRGB;color-interpolation-filters:linearRGB;solid-color:#000000;solid-opacity:1;fill:#000000;fill-opacity:1;fill-rule:evenodd;stroke:none;stroke-width:1.77165353;stroke-linecap:butt;stroke-linejoin:miter;stroke-miterlimit:4;stroke-dasharray:none;stroke-dashoffset:0;stroke-opacity:1;color-rendering:auto;image-rendering:auto;shape-rendering:auto;text-rendering:auto;enable-background:accumulate"
       d="m 78.503726,992.23607 c -1.348901,2.03941 -1.395806,2.82018 -2.590787,3.52303 -2.386523,1.40367 -4.727197,1.53682 -7.255805,0.48589 2.701916,0.40161 5.136548,0.5756 6.937759,-0.83608 1.066039,-0.83549 1.893077,-1.91851 2.683407,-3.76305 1.573573,0.99696 2.060049,0.16598 3.324758,-0.4244 -0.520898,0.56171 -1.049971,1.69573 -3.099332,1.01461 z"
       id="path4277-3"
       inkscape:connector-curvature="0"
       sodipodi:nodetypes="cscsccc" />
    <path
       style="color:#000000;font-style:normal;font-variant:normal;font-weight:normal;font-stretch:normal;font-size:medium;line-height:normal;font-family:sans-serif;text-indent:0;text-align:start;text-decoration:none;text-decoration-line:none;text-decoration-style:solid;text-decoration-color:#000000;letter-spacing:normal;word-spacing:normal;text-transform:none;direction:ltr;block-progression:tb;writing-mode:lr-tb;baseline-shift:baseline;text-anchor:start;white-space:normal;clip-rule:nonzero;display:inline;overflow:visible;visibility:visible;opacity:1;isolation:auto;mix-blend-mode:normal;color-interpolation:sRGB;color-interpolation-filters:linearRGB;solid-color:#000000;solid-opacity:1;fill:#000000;fill-opacity:1;fill-rule:evenodd;stroke:none;stroke-width:1.77165353;stroke-linecap:butt;stroke-linejoin:miter;stroke-miterlimit:4;stroke-dasharray:none;stroke-dashoffset:0;stroke-opacity:1;color-rendering:auto;image-rendering:auto;shape-rendering:auto;text-rendering:auto;enable-background:accumulate"
       d="m 51.93506,1003.4721 c 0.482794,2.0634 2.475375,3.9861 4.198278,4.0724 3.425094,0.1717 4.161705,-0.4187 7.013231,-2.9621 -1.248269,0.507 -2.776953,2.2439 -4.724936,2.3937 -2.753995,0.2119 -3.932214,0.1049 -5.938348,-3.3496 -0.210197,-0.3655 -0.111386,-1.2764 -0.548225,-0.1544 z"
       id="path4277-1-3"
       inkscape:connector-curvature="0"
       sodipodi:nodetypes="cscscc" />
    <path
       style="color:#000000;font-style:normal;font-variant:normal;font-weight:normal;font-stretch:normal;font-size:medium;line-height:normal;font-family:sans-serif;text-indent:0;text-align:start;text-decoration:none;text-decoration-line:none;text-decoration-style:solid;text-decoration-color:#000000;letter-spacing:normal;word-spacing:normal;text-transform:none;direction:ltr;block-progression:tb;writing-mode:lr-tb;baseline-shift:baseline;text-anchor:start;white-space:normal;clip-rule:nonzero;display:inline;overflow:visible;visibility:visible;opacity:1;isolation:auto;mix-blend-mode:normal;color-interpolation:sRGB;color-interpolation-filters:linearRGB;solid-color:#000000;solid-opacity:1;fill:#000000;fill-opacity:1;fill-rule:evenodd;stroke:none;stroke-width:1.77165353;stroke-linecap:butt;stroke-linejoin:miter;stroke-miterlimit:4;stroke-dasharray:none;stroke-dashoffset:0;stroke-opacity:1;color-rendering:auto;image-rendering:auto;shape-rendering:auto;text-rendering:auto;enable-background:accumulate"
       d="m 33.952743,1000.822 c 0.123721,1.3223 4.062655,5.9659 6.333685,6.0246 4.684337,0.1209 5.817574,-1.8168 8.6691,-4.3601 -1.292198,0.3253 -1.798476,1.0066 -3.433343,2.4431 -1.399451,1.2296 -2.892329,1.896 -6.240663,1.1158 -1.204037,-0.2806 -5.14194,-4.8454 -5.328779,-5.2234 z"
       id="path4277-6-2"
       inkscape:connector-curvature="0"
       sodipodi:nodetypes="cscssc" />
    <path
       style="color:#000000;font-style:normal;font-variant:normal;font-weight:normal;font-stretch:normal;font-size:medium;line-height:normal;font-family:sans-serif;text-indent:0;text-align:start;text-decoration:none;text-decoration-line:none;text-decoration-style:solid;text-decoration-color:#000000;letter-spacing:normal;word-spacing:normal;text-transform:none;direction:ltr;block-progression:tb;writing-mode:lr-tb;baseline-shift:baseline;text-anchor:start;white-space:normal;clip-rule:nonzero;display:inline;overflow:visible;visibility:visible;opacity:1;isolation:auto;mix-blend-mode:normal;color-interpolation:sRGB;color-interpolation-filters:linearRGB;solid-color:#000000;solid-opacity:1;fill:#000000;fill-opacity:1;fill-rule:evenodd;stroke:none;stroke-width:1.77165353;stroke-linecap:butt;stroke-linejoin:miter;stroke-miterlimit:4;stroke-dasharray:none;stroke-dashoffset:0;stroke-opacity:1;color-rendering:auto;image-rendering:auto;shape-rendering:auto;text-rendering:auto;enable-background:accumulate"
       d="m 29.971706,1005.1314 c -2.976906,0.1202 -4.122819,2.3656 -5.922246,-0.8238 -0.799357,-1.417 0.03929,-3.8342 -1.61873,-4.96221 0.614469,1.51701 0.157288,4.60801 1.57416,6.27231 0.903615,1.057 2.572311,1.3424 5.324602,0.094 0.46578,-0.2112 1.153377,-0.1505 1.385995,0 0.52126,0.3309 0.467768,1.5607 1.438407,2.0206 -0.591593,-1.0179 -0.02198,-2.6854 -2.186317,-2.5947 z"
       id="path4277-4-6"
       inkscape:connector-curvature="0"
       sodipodi:nodetypes="sscssscs" />
    <path
       style="color:#000000;font-style:normal;font-variant:normal;font-weight:normal;font-stretch:normal;font-size:medium;line-height:normal;font-family:sans-serif;text-indent:0;text-align:start;text-decoration:none;text-decoration-line:none;text-decoration-style:solid;text-decoration-color:#000000;letter-spacing:normal;word-spacing:normal;text-transform:none;direction:ltr;block-progression:tb;writing-mode:lr-tb;baseline-shift:baseline;text-anchor:start;white-space:normal;clip-rule:nonzero;display:inline;overflow:visible;visibility:visible;opacity:1;isolation:auto;mix-blend-mode:normal;color-interpolation:sRGB;color-interpolation-filters:linearRGB;solid-color:#000000;solid-opacity:1;fill:#000000;fill-opacity:1;fill-rule:evenodd;stroke:none;stroke-width:1.77165353;stroke-linecap:butt;stroke-linejoin:miter;stroke-miterlimit:4;stroke-dasharray:none;stroke-dashoffset:0;stroke-opacity:1;color-rendering:auto;image-rendering:auto;shape-rendering:auto;text-rendering:auto;enable-background:accumulate"
       d="m 55.496834,996.30833 c 1.715932,0.0475 4.264444,-1.16298 5.946712,-2.52283 -1.609717,0.63789 -3.688552,1.94012 -5.803666,2.04343 -1.759207,0.0859 -3.938642,-1.36342 -4.677481,-2.88896 -0.545223,-1.12576 -1.281941,-1.81082 -1.88908,-2.77109 -0.696316,-1.10133 -3.19799,0.79954 -4.11017,1.18852 1.01126,0.4043 2.987087,-1.9299 3.699529,-0.93435 0,0 1.520747,2.53146 2.552825,3.56724 1.747584,1.75383 2.758829,2.27586 4.281331,2.31804 z"
       id="path4277-27-1"
       inkscape:connector-curvature="0"
       sodipodi:nodetypes="scssscsss" />
  </g>
</svg>
